<svg height="250" viewbox="0 0 200 250" width="200" xmlns="http://www.w3.org/2000/svg">
<!-- Forma del escudo -->
<path d="M 20 30 Q 100 -10 180 30 L 180 140 Q 180 220 100 240 Q 20 220 20 140 Z" fill="#660066" stroke="#ffffff" stroke-width="5"></path>
<!-- Estrella superior -->
<polygon fill="#ffff00" points="100,40 110,70 140,70 115,90 120,120 100,100 80,120 85,90 60,70 90,70" stroke="#000000" stroke-width="2"></polygon>
<!-- Texto del equipo -->
<text fill="#ffffff" font-family="Arial" font-size="20" font-weight="bold" text-anchor="middle" x="100" y="150">Purple Kings</text>
<!-- Corona inferior -->
<polygon fill="#ffff00" points="70,180 80,160 90,180 100,160 110,180 120,160 130,180 140,160 150,180 150,190 70,190" stroke="#000000" stroke-width="2"></polygon>
</svg>